<svg id="Layer_1" data-name="Layer 1" xmlns="http://www.w3.org/2000/svg" xmlns:xlink="http://www.w3.org/1999/xlink" viewBox="0 0 401.48 45.6"><defs><style>.cls-1{fill:none;}.cls-2{clip-path:url(#clip-path);}.cls-3{fill:#000f9f;}</style><clipPath id="clip-path"><rect class="cls-1" x="0.62" y="2.94" width="399.85" height="41.81"/></clipPath></defs><title>center-for-digital-health-logo</title><g class="cls-2"><path class="cls-3" d="M389.73,6.14A1.2,1.2,0,0,0,388.52,5h-2.31A1.21,1.21,0,0,0,385,6.14V33.52a1.21,1.21,0,0,0,1.22,1.17h2.31a1.2,1.2,0,0,0,1.21-1.17V19.1a3.17,3.17,0,0,1,3-3.36c1.89,0,3,1.34,3,3.36V33.52a1.2,1.2,0,0,0,1.21,1.17h2.31a1.2,1.2,0,0,0,1.21-1.17V17.75c0-3.22-2.3-6.2-5.53-6.2a5.5,5.5,0,0,0-5.2,3.23Zm-13.29,10.4h4.28a1.21,1.21,0,0,0,1.17-1.22V13.48a1.21,1.21,0,0,0-1.17-1.22h-4.28V6.14A1.2,1.2,0,0,0,375.23,5h-2.31a1.2,1.2,0,0,0-1.21,1.17V29.28a5.54,5.54,0,0,0,5.7,5.41h3.27a1.2,1.2,0,0,0,1.17-1.21V31.63a1.21,1.21,0,0,0-1.17-1.22h-1.89c-2.14,0-2.35-1.08-2.35-2.47Zm-13.08,17a1.21,1.21,0,0,0,1.22,1.17h2.31a1.2,1.2,0,0,0,1.21-1.17V6.14A1.2,1.2,0,0,0,366.89,5h-2.31a1.21,1.21,0,0,0-1.22,1.17Zm-8.13-5.41A3.27,3.27,0,0,1,352,31.38c-2.68,0-3.1-1.43-3.1-2.85A2.61,2.61,0,0,1,350.45,26l4.78-2.26Zm-5.32,7a6.33,6.33,0,0,0,5.32-2.55v.92a1.21,1.21,0,0,0,1.22,1.17h2.26a1.21,1.21,0,0,0,1.22-1.17V18.84c0-4-2.39-7.29-7.38-7.29-4.57,0-7.72,3-7.72,6.92v.37A1.18,1.18,0,0,0,346,20h2.22a1.2,1.2,0,0,0,1.17-1.18v-.37a2.67,2.67,0,0,1,2.9-2.73c1.84,0,2.93,1,2.93,2.56,0,1.22-.54,1.68-2.14,2.35L348,22.74c-2.52,1.05-4.11,2.94-4.11,6.42,0,4.52,3.48,6,6,6M337.12,20.86h-6.25V18.93a3.13,3.13,0,1,1,6.25,0Zm3.52,3.73a1.22,1.22,0,0,0,1.22-1.18V18.93c0-4.11-3.27-7.38-7.88-7.38s-7.84,3.27-7.84,7.38V28c0,4.1,3.27,7.37,7.84,7.37s7.88-3.27,7.88-7.37V27.9a1.21,1.21,0,0,0-1.22-1.17h-2.3a1.21,1.21,0,0,0-1.22,1.17V28a3.13,3.13,0,1,1-6.25,0V24.59Zm-28-18.45A1.21,1.21,0,0,0,311.38,5h-2.31a1.2,1.2,0,0,0-1.21,1.17V33.52a1.2,1.2,0,0,0,1.21,1.17h2.31a1.21,1.21,0,0,0,1.22-1.17V19.1a3.17,3.17,0,0,1,3-3.36c1.89,0,3,1.34,3,3.36V33.52a1.21,1.21,0,0,0,1.22,1.17h2.3a1.21,1.21,0,0,0,1.22-1.17V17.75c0-3.22-2.31-6.2-5.54-6.2a5.47,5.47,0,0,0-5.19,3.23ZM294,33.52a1.2,1.2,0,0,0,1.21,1.17h2.31a1.2,1.2,0,0,0,1.21-1.17V6.14A1.2,1.2,0,0,0,297.54,5h-2.31A1.2,1.2,0,0,0,294,6.14Zm-8.14-5.41a3.27,3.27,0,0,1-3.27,3.27c-2.68,0-3.1-1.43-3.1-2.85A2.61,2.61,0,0,1,281.1,26l4.78-2.26Zm-5.32,7a6.33,6.33,0,0,0,5.32-2.55v.92a1.21,1.21,0,0,0,1.22,1.17h2.26a1.21,1.21,0,0,0,1.22-1.17V18.84c0-4-2.39-7.29-7.38-7.29-4.57,0-7.71,3-7.71,6.92v.37A1.17,1.17,0,0,0,276.66,20h2.22a1.21,1.21,0,0,0,1.18-1.18v-.37A2.66,2.66,0,0,1,283,15.74c1.84,0,2.93,1,2.93,2.56,0,1.22-.54,1.68-2.13,2.35l-5.12,2.09c-2.51,1.05-4.11,2.94-4.11,6.42,0,4.52,3.48,6,6,6M267,16.54h4.27a1.22,1.22,0,0,0,1.18-1.22V13.48a1.22,1.22,0,0,0-1.18-1.22H267V6.14A1.21,1.21,0,0,0,265.76,5h-2.3a1.21,1.21,0,0,0-1.22,1.17V29.28a5.54,5.54,0,0,0,5.7,5.41h3.27a1.21,1.21,0,0,0,1.18-1.21V31.63a1.22,1.22,0,0,0-1.18-1.22h-1.89c-2.13,0-2.34-1.08-2.34-2.47Zm-8.35-10.4A1.2,1.2,0,0,0,257.42,5h-2.31a1.2,1.2,0,0,0-1.21,1.17V7.9a1.21,1.21,0,0,0,1.21,1.18h2.31a1.21,1.21,0,0,0,1.21-1.18ZM253.9,33.52a1.2,1.2,0,0,0,1.21,1.17h2.31a1.2,1.2,0,0,0,1.21-1.17V13.44a1.21,1.21,0,0,0-1.21-1.18h-2.31a1.21,1.21,0,0,0-1.21,1.18Zm-14.17-14c0-2,1.09-3.36,3-3.36a3.17,3.17,0,0,1,3,3.36v7.63a3.16,3.16,0,0,1-3,3.35c-1.89,0-3-1.34-3-3.35Zm.08,17.69A1.22,1.22,0,0,0,238.55,36h-2.22a1.21,1.21,0,0,0-1.21,1.18,7.67,7.67,0,1,0,15.34-.34V13.44a1.21,1.21,0,0,0-1.22-1.18h-2.3a1.22,1.22,0,0,0-1.22,1.18v1.34a5.13,5.13,0,0,0-4.94-3.23A5.94,5.94,0,0,0,235,17.34V28.49a6,6,0,0,0,5.79,6.2,5.13,5.13,0,0,0,4.94-3.23v5.75c0,1.72-1,3.35-3,3.35-1.85,0-2.94-1.38-2.94-3.35M231.55,6.14A1.2,1.2,0,0,0,230.34,5H228a1.2,1.2,0,0,0-1.21,1.17V7.9A1.21,1.21,0,0,0,228,9.08h2.31a1.21,1.21,0,0,0,1.21-1.18Zm-4.73,27.38A1.2,1.2,0,0,0,228,34.69h2.31a1.2,1.2,0,0,0,1.21-1.17V13.44a1.21,1.21,0,0,0-1.21-1.18H228a1.21,1.21,0,0,0-1.21,1.18Zm-14.38-14c0-2,1.09-3.36,3-3.36a3.17,3.17,0,0,1,3,3.36v8.34a3.16,3.16,0,0,1-3,3.35c-1.88,0-3-1.34-3-3.35ZM207.7,29.2a6,6,0,0,0,5.79,6.2,5.14,5.14,0,0,0,4.94-3.22v1.34a1.21,1.21,0,0,0,1.22,1.17H222a1.2,1.2,0,0,0,1.22-1.17V6.14A1.2,1.2,0,0,0,222,5h-2.3a1.21,1.21,0,0,0-1.22,1.17v8.64a5.13,5.13,0,0,0-4.94-3.23,5.94,5.94,0,0,0-5.79,5.79Zm-10.4-10a1.2,1.2,0,0,0,1.21,1.17h2.31A1.2,1.2,0,0,0,202,19.18V16.54a4.78,4.78,0,0,0-4.65-5,6.34,6.34,0,0,0-5.11,2.89v-1a1.22,1.22,0,0,0-1.22-1.18h-2.31a1.21,1.21,0,0,0-1.21,1.18V33.52a1.2,1.2,0,0,0,1.21,1.17h2.31a1.21,1.21,0,0,0,1.22-1.17V18.59a2.7,2.7,0,0,1,2.6-2.85c2,0,2.43,1.22,2.43,2.85ZM179.77,28a3.12,3.12,0,1,1-6.24,0v-9.1a3.12,3.12,0,1,1,6.24,0Zm-11,0c0,4.1,3.27,7.37,7.84,7.37s7.88-3.27,7.88-7.37v-9.1c0-4.11-3.27-7.38-7.88-7.38s-7.84,3.27-7.84,7.38Zm-2.85-10.44a1.21,1.21,0,0,0,1.17-1.22V14.53a1.21,1.21,0,0,0-1.17-1.22h-4.28V11.68c0-1.39.21-2.48,2.35-2.48h1.93A1.2,1.2,0,0,0,167.11,8V6.14a1.2,1.2,0,0,0-1.17-1.21h-3.31a5.54,5.54,0,0,0-5.7,5.4V33.52a1.2,1.2,0,0,0,1.21,1.17h2.31a1.2,1.2,0,0,0,1.21-1.17V17.59Zm-19.8,1.59a1.21,1.21,0,0,0,1.22,1.17h2.31a1.2,1.2,0,0,0,1.21-1.17V16.54a4.78,4.78,0,0,0-4.65-5,6.35,6.35,0,0,0-5.12,2.89v-1a1.21,1.21,0,0,0-1.21-1.18h-2.31a1.21,1.21,0,0,0-1.21,1.18V33.52a1.2,1.2,0,0,0,1.21,1.17h2.31a1.2,1.2,0,0,0,1.21-1.17V18.59a2.71,2.71,0,0,1,2.6-2.85c2,0,2.43,1.22,2.43,2.85Zm-17.52,1.68h-6.25V18.93a3.13,3.13,0,1,1,6.25,0Zm3.52,3.73a1.22,1.22,0,0,0,1.22-1.18V18.93c0-4.11-3.27-7.38-7.88-7.38s-7.84,3.27-7.84,7.38V28c0,4.1,3.27,7.37,7.84,7.37s7.88-3.27,7.88-7.37V27.9a1.21,1.21,0,0,0-1.22-1.17h-2.3a1.21,1.21,0,0,0-1.22,1.17V28a3.13,3.13,0,1,1-6.25,0V24.59Zm-22.29-8h4.27a1.22,1.22,0,0,0,1.18-1.22V13.48a1.22,1.22,0,0,0-1.18-1.22h-4.27V6.14A1.21,1.21,0,0,0,108.63,5h-2.31a1.2,1.2,0,0,0-1.21,1.17V29.28a5.54,5.54,0,0,0,5.7,5.41h3.27a1.2,1.2,0,0,0,1.17-1.21V31.63a1.21,1.21,0,0,0-1.17-1.22h-1.89c-2.13,0-2.34-1.08-2.34-2.47ZM91,13.44a1.21,1.21,0,0,0-1.21-1.18H87.5a1.21,1.21,0,0,0-1.21,1.18V33.52a1.2,1.2,0,0,0,1.21,1.17h2.31A1.2,1.2,0,0,0,91,33.52V19.1a3.17,3.17,0,0,1,3-3.36c1.89,0,3,1.34,3,3.36V33.52a1.2,1.2,0,0,0,1.21,1.17h2.31a1.21,1.21,0,0,0,1.22-1.17V17.75c0-3.22-2.31-6.2-5.54-6.2A5.5,5.5,0,0,0,91,14.78ZM78.53,20.86H72.28V18.93a3.13,3.13,0,1,1,6.25,0Zm3.52,3.73a1.22,1.22,0,0,0,1.22-1.18V18.93c0-4.11-3.27-7.38-7.88-7.38s-7.84,3.27-7.84,7.38V28c0,4.1,3.27,7.37,7.84,7.37s7.88-3.27,7.88-7.37V27.9a1.21,1.21,0,0,0-1.22-1.17h-2.3a1.21,1.21,0,0,0-1.22,1.17V28a3.13,3.13,0,1,1-6.25,0V24.59ZM65.33,18.76c0-4-3.15-7.21-7.76-7.21a7.38,7.38,0,0,0-7.76,7.38V28c0,4.1,3.19,7.37,7.76,7.37s7.76-3.27,7.76-7.37v-.34a1.21,1.21,0,0,0-1.22-1.17H61.8a1.2,1.2,0,0,0-1.21,1.17V28a3,3,0,0,1-3,3.18,3,3,0,0,1-3-3.18v-9.1a3,3,0,0,1,3-3.19,2.86,2.86,0,0,1,3,3,1.2,1.2,0,0,0,1.21,1.17h2.31a1.21,1.21,0,0,0,1.22-1.17"/><path class="cls-3" d="M6.26,29.33a5.63,5.63,0,1,0,4,1.65,5.65,5.65,0,0,0-4-1.65m0-13.2a5.65,5.65,0,1,0,5.64,5.65,5.57,5.57,0,0,0-1.65-4,5.61,5.61,0,0,0-4-1.66m13.09,13.2a5.65,5.65,0,1,0,4,1.65,5.59,5.59,0,0,0-4-1.65m0-15.09a5.65,5.65,0,1,0-4-1.66,5.66,5.66,0,0,0,4,1.66m0,1.89A5.65,5.65,0,1,0,25,21.78a5.66,5.66,0,0,0-5.65-5.65"/></g></svg>