<svg id="Layer_1" data-name="Layer 1" xmlns="http://www.w3.org/2000/svg" viewBox="0 0 198.85 93.21"><defs><style>.cls-1{fill:#000f9f;}</style></defs><title>logo-lockup</title><path class="cls-1" d="M14,65.27a14,14,0,1,0,9.88,4.09A14,14,0,0,0,14,65.27m0-32.64a14,14,0,1,0,9.88,4.1A14,14,0,0,0,14,32.63M46.36,65.27a14,14,0,1,0,9.88,4.09,14,14,0,0,0-9.88-4.09m0-37.33a14,14,0,1,0-9.88-4.09,14,14,0,0,0,9.88,4.09m0,4.69a14,14,0,1,0,14,14,14,14,0,0,0-14-14"/><path class="cls-1" d="M97.87,15.06H96.06a1,1,0,0,1-1-.92,2.24,2.24,0,0,0-2.37-2.37,2.37,2.37,0,0,0-2.37,2.5v7.15a2.37,2.37,0,0,0,2.37,2.51,2.33,2.33,0,0,0,2.37-2.51v-.26a1,1,0,0,1,1-.92h1.81a1,1,0,0,1,1,.92v.26a6.11,6.11,0,0,1-12.2,0V14.27a5.8,5.8,0,0,1,6.1-5.8c3.63,0,6.1,2.51,6.1,5.67A1,1,0,0,1,97.87,15.06Z"/><path class="cls-1" d="M104.33,18.72v2.7a2.46,2.46,0,1,0,4.91,0v-.1a1,1,0,0,1,1-.92H112a1,1,0,0,1,1,.92v.1a6.19,6.19,0,0,1-12.36,0V14.27a6.19,6.19,0,0,1,12.36,0V17.8a1,1,0,0,1-1,.92Zm4.91-4.45a2.46,2.46,0,1,0-4.91,0v1.52h4.91Z"/><path class="cls-1" d="M119.1,11a4.31,4.31,0,0,1,4.08-2.54c2.54,0,4.35,2.34,4.35,4.88V25.74a.94.94,0,0,1-1,.92h-1.81a1,1,0,0,1-1-.92V14.4c0-1.58-.86-2.63-2.34-2.63a2.48,2.48,0,0,0-2.37,2.63V25.74a1,1,0,0,1-1,.92h-1.81a1,1,0,0,1-1-.92V10a1,1,0,0,1,1-.92h1.81a1,1,0,0,1,1,.92Z"/><path class="cls-1" d="M133.93,21.36c0,1.08.16,1.94,1.84,1.94h1.49a1,1,0,0,1,.92,1v1.45a.94.94,0,0,1-.92.95h-2.57a4.36,4.36,0,0,1-4.49-4.25V4.22a1,1,0,0,1,1-.92H133a1,1,0,0,1,1,.92V9h3.36a1,1,0,0,1,.92,1v1.45a1,1,0,0,1-.92,1h-3.36Z"/><path class="cls-1" d="M143.78,18.72v2.7a2.46,2.46,0,1,0,4.91,0v-.1a1,1,0,0,1,1-.92h1.81a1,1,0,0,1,1,.92v.1a6.19,6.19,0,0,1-12.36,0V14.27a6.19,6.19,0,0,1,12.36,0V17.8a1,1,0,0,1-1,.92Zm4.91-4.45a2.46,2.46,0,1,0-4.91,0v1.52h4.91Z"/><path class="cls-1" d="M162.47,14c0-1.29-.36-2.24-1.91-2.24A2.13,2.13,0,0,0,158.51,14V25.74a.94.94,0,0,1-.95.92h-1.82a.94.94,0,0,1-1-.92V10a1,1,0,0,1,1-.92h1.82a.94.94,0,0,1,.95.92v.79a5,5,0,0,1,4-2.27,3.76,3.76,0,0,1,3.65,3.92v2.08a1,1,0,0,1-.95.92h-1.82a1,1,0,0,1-.95-.92Z"/><path class="cls-1" d="M90.82,44.39V56.91a1,1,0,0,1-1,.93H88.05a1,1,0,0,1-1-.93V38.69a4.36,4.36,0,0,1,4.49-4.25h2.6a.94.94,0,0,1,.92,1v1.45a1,1,0,0,1-.92,1H92.66c-1.68,0-1.84.86-1.84,1.94V41h3.36a1,1,0,0,1,.92.95v1.45a1,1,0,0,1-.92,1Z"/><path class="cls-1" d="M96.45,45.44a6.19,6.19,0,0,1,12.36,0V52.6a6.19,6.19,0,0,1-12.36,0Zm8.64,0a2.46,2.46,0,1,0-4.91,0V52.6a2.46,2.46,0,1,0,4.91,0Z"/><path class="cls-1" d="M118.87,45.18c0-1.28-.37-2.24-1.92-2.24a2.12,2.12,0,0,0-2,2.24V56.91a1,1,0,0,1-1,.93h-1.81a1,1,0,0,1-1-.93V41.13a1,1,0,0,1,1-.93H114a1,1,0,0,1,1,.93v.79a5,5,0,0,1,4-2.28,3.76,3.76,0,0,1,3.66,3.93v2.07a1,1,0,0,1-1,.93h-1.81a1,1,0,0,1-.95-.93Z"/><path class="cls-1" d="M127.1,44.19a4.67,4.67,0,0,1,4.55-4.55,4.06,4.06,0,0,1,3.89,2.54V35.39a1,1,0,0,1,1-.92h1.81a1,1,0,0,1,1,.92V56.91a1,1,0,0,1-1,.93H136.5a1,1,0,0,1-1-.93v-1a4,4,0,0,1-3.89,2.54,4.72,4.72,0,0,1-4.55-4.88Zm3.73,8.28c0,1.58.86,2.63,2.34,2.63a2.48,2.48,0,0,0,2.37-2.63V45.91a2.49,2.49,0,0,0-2.37-2.64,2.34,2.34,0,0,0-2.34,2.64Z"/><path class="cls-1" d="M145.89,36.78a1,1,0,0,1-1,.92h-1.81a.94.94,0,0,1-1-.92V35.39a.94.94,0,0,1,1-.92h1.81a1,1,0,0,1,1,.92Zm-3.72,4.35a1,1,0,0,1,1-.93h1.81a1,1,0,0,1,1,.93V56.91a1,1,0,0,1-1,.93h-1.81a1,1,0,0,1-1-.93Z"/><path class="cls-1" d="M154.72,62.45a2.37,2.37,0,0,0,2.34-2.63V55.3a4,4,0,0,1-3.89,2.54A4.72,4.72,0,0,1,148.63,53V44.19a4.67,4.67,0,0,1,4.54-4.55,4,4,0,0,1,3.89,2.54v-1a1,1,0,0,1,1-.93h1.81a1,1,0,0,1,1,.93V59.55a6,6,0,1,1-12.07.27,1,1,0,0,1,1-.93h1.75a1,1,0,0,1,1,.93C152.42,61.36,153.27,62.45,154.72,62.45ZM152.35,51.9c0,1.59.86,2.64,2.34,2.64a2.48,2.48,0,0,0,2.37-2.64v-6a2.49,2.49,0,0,0-2.37-2.64,2.34,2.34,0,0,0-2.34,2.64Z"/><path class="cls-1" d="M167.25,36.78a1,1,0,0,1-1,.92h-1.81a1,1,0,0,1-1-.92V35.39a1,1,0,0,1,1-.92h1.81a1,1,0,0,1,1,.92Zm-3.73,4.35a1,1,0,0,1,1-.93h1.81a1,1,0,0,1,1,.93V56.91a1,1,0,0,1-1,.93h-1.81a1,1,0,0,1-1-.93Z"/><path class="cls-1" d="M173.84,52.53c0,1.09.16,1.95,1.84,1.95h1.49a.94.94,0,0,1,.92,1v1.45a1,1,0,0,1-.92,1H174.6a4.36,4.36,0,0,1-4.49-4.25V35.39a1,1,0,0,1,1-.92h1.81a1,1,0,0,1,1,.92V40.2h3.36a1,1,0,0,1,.92,1v1.45a1,1,0,0,1-.92,1h-3.36Z"/><path class="cls-1" d="M179.8,53.49A4.94,4.94,0,0,1,183,48.44l4-1.64c1.26-.53,1.69-.89,1.69-1.85a2,2,0,0,0-2.31-2,2.1,2.1,0,0,0-2.28,2.14v.3a.94.94,0,0,1-.92.92h-1.75a.92.92,0,0,1-.92-.92v-.3c0-3.1,2.47-5.44,6.07-5.44,3.92,0,5.8,2.57,5.8,5.74V56.91a1,1,0,0,1-1,.93h-1.78a1,1,0,0,1-.95-.93v-.72a5,5,0,0,1-4.19,2A4.48,4.48,0,0,1,179.8,53.49Zm8.94-4.25L185,51a2,2,0,0,0-1.25,2c0,1.12.32,2.24,2.43,2.24a2.58,2.58,0,0,0,2.58-2.57Z"/><path class="cls-1" d="M195.13,35.39a1,1,0,0,1,1-.92h1.82a1,1,0,0,1,.95.92V56.91a1,1,0,0,1-.95.93h-1.82a1,1,0,0,1-1-.93Z"/><path class="cls-1" d="M90.82,73.36a4.32,4.32,0,0,1,4.09-2.54c2.54,0,4.35,2.34,4.35,4.88V88.09a1,1,0,0,1-1,.93H96.49a1,1,0,0,1-.95-.93V76.76c0-1.59-.86-2.64-2.34-2.64a2.48,2.48,0,0,0-2.38,2.64V88.09a1,1,0,0,1-.95.93H88.05a1,1,0,0,1-1-.93V66.57a1,1,0,0,1,1-.92h1.82a1,1,0,0,1,.95.92Z"/><path class="cls-1" d="M105.22,81.07v2.71a2.46,2.46,0,1,0,4.92,0v-.1a1,1,0,0,1,1-.93h1.81a1,1,0,0,1,1,.93v.1a6.19,6.19,0,0,1-12.36,0V76.62a6.19,6.19,0,0,1,12.36,0v3.53a1,1,0,0,1-1,.92Zm4.92-4.45a2.46,2.46,0,1,0-4.92,0v1.52h4.92Z"/><path class="cls-1" d="M115.44,84.67a4.93,4.93,0,0,1,3.23-5l4-1.64c1.26-.53,1.68-.89,1.68-1.85a2,2,0,0,0-2.3-2,2.1,2.1,0,0,0-2.28,2.14v.3a.94.94,0,0,1-.92.92h-1.75a.92.92,0,0,1-.92-.92v-.3c0-3.1,2.47-5.44,6.06-5.44,3.93,0,5.81,2.57,5.81,5.74V88.09a1,1,0,0,1-1,.93h-1.78a1,1,0,0,1-1-.93v-.72a5,5,0,0,1-4.18,2A4.48,4.48,0,0,1,115.44,84.67Zm8.93-4.26-3.75,1.78a2.05,2.05,0,0,0-1.26,2c0,1.12.33,2.24,2.44,2.24a2.57,2.57,0,0,0,2.57-2.57Z"/><path class="cls-1" d="M130.8,66.57a1,1,0,0,1,1-.92h1.81a.94.94,0,0,1,1,.92V88.09a1,1,0,0,1-1,.93h-1.81a1,1,0,0,1-1-.93Z"/><path class="cls-1" d="M141.12,83.71c0,1.09.16,1.94,1.84,1.94h1.48a1,1,0,0,1,.93,1v1.45a1,1,0,0,1-.93,1h-2.57a4.36,4.36,0,0,1-4.48-4.26V66.57a1,1,0,0,1,1-.92h1.81a1,1,0,0,1,1,.92v4.81h3.36a1,1,0,0,1,.92,1v1.45a.94.94,0,0,1-.92.95h-3.36Z"/><path class="cls-1" d="M151.6,73.36a4.3,4.3,0,0,1,4.08-2.54c2.54,0,4.35,2.34,4.35,4.88V88.09a1,1,0,0,1-.95.93h-1.82a1,1,0,0,1-.95-.93V76.76c0-1.59-.86-2.64-2.34-2.64a2.48,2.48,0,0,0-2.37,2.64V88.09a1,1,0,0,1-1,.93h-1.81a1,1,0,0,1-1-.93V66.57a1,1,0,0,1,1-.92h1.81a1,1,0,0,1,1,.92Z"/></svg>