<svg id="Layer_1" data-name="Layer 1" xmlns="http://www.w3.org/2000/svg" viewBox="0 0 184.19 24"><defs><style>.cls-1{fill:#004087;}.cls-2{fill:#fff;}.cls-3{fill:#e2002d;}.cls-4,.cls-5,.cls-6,.cls-7{fill:none;stroke-miterlimit:3.86;}.cls-4{stroke:#e2002d;}.cls-4,.cls-6{stroke-width:0.12px;}.cls-5,.cls-6,.cls-7{stroke:#004087;}.cls-5{stroke-width:0.12px;}.cls-7{stroke-width:0.24px;}</style></defs><title>penn-medicine-logo</title><path class="cls-1" d="M105.23,2.9c-1.43,0-2,1-1.86,2.63L104.21,16c.18,2.07.52,2.72,2.06,2.86v.51h-6v-.51c1.36-.23,1.83-.85,1.71-2.54l-.81-11h-.06l-5.69,14H95l-5.58-14h-.06L88.43,15.8c-.14,1.71.47,2.72,2.15,3v.51H85.41v-.51c1.69-.23,2-1.24,2.12-3.1l1-11.66A3.3,3.3,0,0,0,86.37,2.9V2.4h4.21L95.9,15.74,101.31,2.4h3.92ZM79.71,17.07c0,1.36.29,1.77,1.74,1.77v.51H76v-.51c1.39,0,1.77-.32,1.77-1.3V12.07a2.22,2.22,0,0,0-2.29-2.4c-1,0-1.92.65-2.94,2.05v5.11c0,1.6.2,2,1.74,2v.51H68.81v-.51c1.37,0,1.71-.11,1.71-2V11c0-1.28-.31-1.54-1.71-1.54V8.9L72,8.58h.49v2.1a4.94,4.94,0,0,1,3.72-2.1,3.49,3.49,0,0,1,3.49,3.76Zm-13.09,0c0,1.36.29,1.77,1.74,1.77v.51H62.87v-.51c1.39,0,1.77-.32,1.77-1.3V12.07a2.22,2.22,0,0,0-2.29-2.4c-1,0-1.92.65-2.94,2.05v5.11c0,1.6.2,2,1.75,2v.51H55.72v-.51c1.37,0,1.71-.11,1.71-2V11c0-1.28-.32-1.54-1.71-1.54V8.9l3.2-.32h.49v2.1a4.94,4.94,0,0,1,3.72-2.1,3.49,3.49,0,0,1,3.49,3.76ZM53.51,12.45A2.83,2.83,0,0,0,50.75,9.2C49,9.2,48,10.5,47.9,12.45ZM47.9,13c-.06,4.7,2.7,5.88,4.09,5.88s2.15-.5,3.64-2.18v.77a4.85,4.85,0,0,1-4.25,2.24,5.3,5.3,0,0,1-5.55-5.44A5.37,5.37,0,0,1,51,8.58,4.35,4.35,0,0,1,55.45,13Zm-9.19-2.31a5.15,5.15,0,0,0,2.06.3c2.47,0,4-1.36,4-3.67,0-1.81-1-4.23-4-4.23H38.71Zm0,5.5c0,2.1.49,2.69,1.89,2.69v.51h-6v-.51c1.17,0,1.89-.38,1.89-2.63V5.59c0-2.07-.49-2.69-1.89-2.69V2.4h6.08c4.59,0,6.45,2.48,6.45,4.82,0,2.81-2.09,4.38-5.87,4.38a18.66,18.66,0,0,1-2.56-.18Z"/><path class="cls-1" d="M171.72,12.45A2.82,2.82,0,0,0,169,9.2c-1.71,0-2.73,1.3-2.84,3.25Zm-5.6.51c-.06,4.7,2.7,5.88,4.09,5.88s2.15-.5,3.64-2.18v.77a4.86,4.86,0,0,1-4.25,2.24,5.3,5.3,0,0,1-5.55-5.44,5.37,5.37,0,0,1,5.18-5.65A4.35,4.35,0,0,1,173.67,13Zm-3.46,4.11c0,1.36.29,1.77,1.74,1.77v.51h-5.49v-.51c1.4,0,1.77-.32,1.77-1.3V12.07a2.22,2.22,0,0,0-2.29-2.4c-1,0-1.92.65-2.94,2.05v5.11c0,1.6.21,2,1.75,2v.51h-5.44v-.51c1.37,0,1.72-.11,1.72-2V11c0-1.28-.32-1.54-1.72-1.54v-.5l3.2-.33h.49v2.1a4.94,4.94,0,0,1,3.72-2.1,3.49,3.49,0,0,1,3.49,3.76ZM149.72,4.44a1.27,1.27,0,0,1-1.25,1.3,1.3,1.3,0,0,1-1.28-1.3,1.27,1.27,0,0,1,1.28-1.27,1.25,1.25,0,0,1,1.25,1.27m-.29,13c0,1,.26,1.44,1.71,1.44v.51H145.5v-.51c1.57,0,1.95-.2,1.95-1.44V11c0-1.45-.43-1.57-1.95-1.57v-.5l3.43-.33h.5Zm-4.93-5.12H144a3.6,3.6,0,0,0-3.46-3.11c-2,0-3.46,1.78-3.46,4.35,0,2.87,1.78,5.27,3.87,5.27a4.91,4.91,0,0,0,3.84-2.19v.77a5.39,5.39,0,0,1-4.54,2.3,5,5,0,0,1-5.17-5.29,5.56,5.56,0,0,1,5.32-5.8,13.48,13.48,0,0,1,2.9.59.85.85,0,0,0,.7-.59h.5ZM133.85,4.44a1.28,1.28,0,0,1-1.25,1.3,1.3,1.3,0,0,1-1.28-1.3,1.27,1.27,0,0,1,1.28-1.27,1.25,1.25,0,0,1,1.25,1.27m-.29,13c0,1,.26,1.44,1.71,1.44v.51h-5.64v-.51c1.57,0,2-.2,2-1.44V11c0-1.45-.44-1.57-2-1.57v-.5l3.43-.33h.5ZM125,11a3.87,3.87,0,0,0-3-1.78c-1.86,0-3.14,1.72-3.14,4.26s1.14,5.42,4.51,5.42c1.16,0,1.62-.48,1.62-1.6Zm2,6.33c0,1.15.41,1.53,1.71,1.53v.51h-6c-4.36,0-6-3-6-5.45a5.08,5.08,0,0,1,4.83-5.32A6,6,0,0,1,125,9.85V3.43c0-1.51-.34-1.8-1.36-1.8H123V1.12l3.43-.35H127ZM113.6,12.45a2.82,2.82,0,0,0-2.76-3.25c-1.71,0-2.73,1.3-2.85,3.25ZM108,13c-.06,4.7,2.7,5.88,4.1,5.88s2.15-.5,3.63-2.18v.77a4.85,4.85,0,0,1-4.24,2.24,5.3,5.3,0,0,1-5.55-5.44,5.37,5.37,0,0,1,5.17-5.65A4.37,4.37,0,0,1,115.55,13Z"/><path class="cls-2" d="M1.46.77H21.53v10c-.14,8.17-9.3,12.47-10.45,12.43S1.44,19,1.46,10.76V.77"/><path class="cls-2" d="M2,1.3h19.1v9.55c-.13,7.79-8.85,11.88-10,11.84S1.92,18.65,2,10.81V1.3"/><path class="cls-3" d="M2,7.11S2,1.3,2,1.3H21V7.11Z"/><path class="cls-4" d="M1.93,7.11s0-5.81,0-5.81H21V7.11Z"/><path class="cls-1" d="M3,15.6a10.83,10.83,0,0,0,2.91,3.85l5.56-5.62,5.35,5.49a14,14,0,0,0,2.95-3.68l-8.3-8-8.44,8Z"/><path class="cls-5" d="M3,15.61a10.7,10.7,0,0,0,2.92,3.84l5.56-5.62,5.36,5.49a14,14,0,0,0,2.95-3.68l-8.32-8L3,15.62Z"/><line class="cls-6" x1="1.95" y1="7.2" x2="21.04" y2="7.12"/><path class="cls-2" d="M16.26,2.75h.52c.38-.09.52-.31.91-.31s.41.18.62.18.44-.19.73-.19.45.18.65.26a1.59,1.59,0,0,0,.64.07v.43c0,.14.2.09.2.33s-.26.2-.26.31v.94c0,.12.25.14.25.32s-.27.17-.25.38,0,.49,0,.49c-.52,0-3.82,0-4,0a2.8,2.8,0,0,1,.08-.5c0-.13-.3-.22-.3-.45s.19-.15.2-.3V3.79c0-.13-.29-.19-.28-.37s.26-.18.26-.32,0-.29,0-.35"/><path class="cls-6" d="M16.25,2.74h.52c.38-.08.52-.31.91-.31s.42.19.63.19.44-.2.73-.2.45.18.65.27a1.85,1.85,0,0,0,.65.07c0,.17,0,.28,0,.42s.2.09.2.34-.26.2-.26.3v1c0,.11.25.13.25.31s-.27.18-.25.39a3.63,3.63,0,0,1,0,.48l-4,0a3.17,3.17,0,0,1,.07-.5c0-.14-.29-.22-.29-.46s.18-.15.2-.3V3.79c0-.13-.29-.19-.28-.37s.26-.18.26-.33Zm.43,0V5.38H19.9c0-.56,0-2.63,0-2.63m-1.6-.11V5.38"/><path class="cls-1" d="M18.34,5a4.7,4.7,0,0,1,.62.17,6.22,6.22,0,0,0,.89.08c.08,0-1.51,0-1.51,0V5"/><path class="cls-6" d="M18.33,5a3.37,3.37,0,0,1,.63.17,6.23,6.23,0,0,0,.9.08c.08,0-1.53,0-1.53,0C18.34,5,18.33,5,18.33,5Z"/><path class="cls-1" d="M18.11,5.45c0-.07.08-.13.18-.13s.18.06.18.13-.08.12-.18.12-.18-.05-.18-.12"/><path class="cls-6" d="M18.1,5.45c0-.07.09-.13.19-.13s.18.06.18.13-.08.13-.18.13S18.1,5.52,18.1,5.45Z"/><path class="cls-1" d="M18.2,5a4.38,4.38,0,0,0-.63.17,6,6,0,0,1-.89.08c-.08,0,1.52,0,1.52,0,0-.31,0-.28,0-.28"/><path class="cls-6" d="M18.21,5a3.37,3.37,0,0,0-.63.17,6.23,6.23,0,0,1-.9.08c-.08,0,1.53,0,1.53,0C18.2,5,18.21,5,18.21,5Z"/><path class="cls-2" d="M7.62,6.23a.42.42,0,0,0,.45.34A2.26,2.26,0,0,0,9.25,6a.76.76,0,0,0,.42-.64l0,.13s.37-.37,1.26-.08c.24.08,1.3.68,1.53.77a2.84,2.84,0,0,0,2,.39,1.51,1.51,0,0,0,1.28-1.92c-.27-1.21-.18-1.3-.08-1.69,0,0-1-.24-1,1.11-.43,0-1,.36-.61,1.19a.78.78,0,0,1,.59-.43c.17,0,.34.23.35.41,0,.42-.4.61-.93.52-.27,0-.52-.34-.88-.61.06,0,.12-.25.12-.34s-.19-.31-.31-.38A.9.9,0,0,0,13,4.22c0-.17-.25-.16-.34-.22s0,0,0-.1c0-.25,0-.39-.47-.38.05-.24,0-.4-.18-.47L11.7,3c-.23,0,0-.12-.22-.33s-.5,0-.5,0a.3.3,0,0,0-.33-.3.8.8,0,0,0-.32,0l-.15.12c-.2,0-.25-.17-.47-.17s-.31.17-.4.28c-.15-.07-.17-.2-.37-.2s-.16.13-.21.19-.12.3-.33.37l-.08-.13v0a4.88,4.88,0,0,0-1,2c0,.3.26.17.26.5s-.28.33-.28.49.24.31.45.31Z"/><path class="cls-5" d="M7.62,6.24a.43.43,0,0,0,.45.34A2.2,2.2,0,0,0,9.24,6a.77.77,0,0,0,.43-.64l0,.13s.36-.36,1.26-.08c.24.08,1.3.68,1.54.78a2.85,2.85,0,0,0,2,.39,1.52,1.52,0,0,0,1.28-1.93c-.26-1.22-.18-1.3-.08-1.69,0,0-1-.24-1,1.11-.42,0-1,.36-.61,1.19a.78.78,0,0,1,.6-.43c.16,0,.33.24.35.41,0,.42-.41.61-.94.52-.26,0-.51-.34-.88-.61.06,0,.12-.25.12-.33s-.18-.32-.31-.39A.9.9,0,0,0,13,4.22c0-.17-.24-.16-.34-.22s0,0,0-.1c0-.25,0-.39-.46-.38,0-.24,0-.4-.18-.47L11.7,3c-.23,0,0-.12-.21-.33s-.51,0-.51,0a.3.3,0,0,0-.33-.31.8.8,0,0,0-.32.05l-.15.13c-.2,0-.25-.18-.47-.18s-.31.18-.4.29c-.15-.07-.17-.2-.38-.2s-.15.13-.2.19-.13.3-.33.37l-.08-.14a0,0,0,0,0,0,0,4.94,4.94,0,0,0-1,2c0,.31.27.17.27.5s-.28.33-.28.5.24.31.45.31Z"/><path class="cls-1" d="M8.33,4.92s.34.13.34.2-.22.2-.36.33H8.13c.06-.21,0-.14,0-.33a.22.22,0,0,1,.2-.2"/><path class="cls-6" d="M8.33,4.92s.33.13.33.2-.21.2-.36.32H8.12c.06-.21,0-.13,0-.32A.22.22,0,0,1,8.33,4.92Zm1.23-.57c.17-.09.09-.3.37-.3s.35.17.57.17.26-.15.47-.15a.5.5,0,0,1,.39.55.45.45,0,0,1,.62.49c.52-.18.46.25.52.46s.38,0,.33.46"/><path class="cls-2" d="M2.67,2.76h.52c.38-.08.52-.3.91-.3s.41.18.62.18.44-.2.73-.2.45.18.65.27a1.85,1.85,0,0,0,.65.07c0,.17,0,.28,0,.42s.2.09.2.33-.26.21-.26.31v1c0,.12.25.13.25.31s-.27.18-.25.39,0,.49,0,.49H2.78c0-.35,0-.3,0-.47s-.3-.22-.3-.45.19-.15.21-.3v-1c0-.12-.29-.18-.28-.36s.26-.18.26-.33V2.76"/><path class="cls-6" d="M2.66,2.76h.53c.38-.09.52-.31.91-.31s.41.19.62.19.44-.2.74-.2.45.18.64.26a1.67,1.67,0,0,0,.65.07c0,.18,0,.28,0,.43s.2.09.2.33-.26.21-.26.31v1c0,.12.25.14.25.32s-.26.17-.24.38,0,.49,0,.49H2.77c0-.36,0-.31,0-.48s-.3-.22-.3-.45.18-.15.2-.3v-1c0-.12-.29-.18-.28-.36s.26-.19.26-.33S2.67,2.82,2.66,2.76Zm.43,0V5.39s3.08,0,3.22,0V2.76M4.7,2.64V5.4"/><path class="cls-1" d="M4.75,5.06a2.73,2.73,0,0,1,.63.17,7.71,7.71,0,0,0,.89.08c.08,0-1.52,0-1.52,0,0-.3,0-.27,0-.27"/><path class="cls-6" d="M4.74,5.05a3.85,3.85,0,0,1,.64.18,6.1,6.1,0,0,0,.89.08c.08,0-1.53,0-1.53,0C4.75,5,4.74,5.05,4.74,5.05Z"/><path class="cls-1" d="M4.52,5.47c0-.07.08-.13.18-.13s.18.06.18.13-.08.12-.18.12-.18-.06-.18-.12"/><path class="cls-6" d="M4.52,5.47c0-.08.08-.13.18-.13s.19,0,.19.13-.09.12-.19.12S4.52,5.54,4.52,5.47Z"/><path class="cls-1" d="M4.61,5.06A2.81,2.81,0,0,0,4,5.23a8.11,8.11,0,0,1-.89.08c-.08,0,1.51,0,1.51,0V5.06"/><path class="cls-6" d="M4.62,5.05A3.54,3.54,0,0,0,4,5.23a6.23,6.23,0,0,1-.9.08c-.08,0,1.53,0,1.53,0C4.61,5,4.62,5.05,4.62,5.05Z"/><path class="cls-2" d="M5.23,15a1.67,1.67,0,1,1,1.67,1.6A1.64,1.64,0,0,1,5.23,15"/><path class="cls-6" d="M5.22,15A1.68,1.68,0,1,1,6.9,16.58,1.65,1.65,0,0,1,5.22,15Z"/><path class="cls-2" d="M9.81,11.11a1.67,1.67,0,1,1,1.67,1.6,1.64,1.64,0,0,1-1.67-1.6"/><path class="cls-5" d="M9.81,11.11a1.67,1.67,0,1,1,1.67,1.61A1.64,1.64,0,0,1,9.81,11.11Z"/><path class="cls-2" d="M14.14,15a1.67,1.67,0,1,1,1.66,1.6A1.63,1.63,0,0,1,14.14,15"/><path class="cls-6" d="M14.14,15a1.67,1.67,0,1,1,1.67,1.61A1.64,1.64,0,0,1,14.14,15Zm-1-9.85c-.42-.47-.8-1-.86-1a3,3,0,0,0-2.06-1.16c-.34,0-1.62.11-1.67.43M9.68,5.49a.41.41,0,0,0,0-.11s-.31,0-.39,0,.14-.09.11-.09c.19-.08.69-.3.51-.46a4.43,4.43,0,0,1-.36-.44.6.6,0,0,0-.5-.21c-.2,0-.52.34-.65.43.1-.09.38-.33.38-.53,0-.45-.36-.84-.46-1.21M7.75,6.17a1.58,1.58,0,0,0,.72-.11,1.54,1.54,0,0,0,.6-.49"/><path class="cls-7" d="M1.93,1.29H21.06v9.56c-.13,7.8-8.87,11.89-10,11.86s-9.19-4.05-9.17-11.9Z"/></svg>