<svg id="Layer_1" data-name="Layer 1" xmlns="http://www.w3.org/2000/svg" viewBox="0 0 26 26"><defs><style>.cls-1{fill:#000f9f;}</style></defs><title>twitter</title><path class="cls-1" d="M20.91,10.14v.48a10.42,10.42,0,0,1-10.5,10.5A10.37,10.37,0,0,1,4.76,19.5a7.93,7.93,0,0,0,.87.06,7.42,7.42,0,0,0,4.57-1.68,3.63,3.63,0,0,1-3.43-2.5,4.92,4.92,0,0,0,.69.06,3.49,3.49,0,0,0,1-.12,3.71,3.71,0,0,1-2.95-3.64v0a3.39,3.39,0,0,0,1.65.45A3.65,3.65,0,0,1,5.51,9,4,4,0,0,1,6,7.16,10.48,10.48,0,0,0,13.63,11a4,4,0,0,1-.09-.84,3.68,3.68,0,0,1,3.67-3.7,3.63,3.63,0,0,1,2.68,1.17,7.78,7.78,0,0,0,2.32-.9,3.5,3.5,0,0,1-1.6,2.05,8.22,8.22,0,0,0,2.14-.57,7.68,7.68,0,0,1-1.84,1.89M13,0A13,13,0,1,0,26,13,13,13,0,0,0,13,0"/></svg>